<svg width="16" height="16" xmlns="http://www.w3.org/2000/svg">
    <g>
        <title>Layer 1</title>
        <g id="svg_1" fill-rule="evenodd" fill="none">
            <path id="svg_2" d="m12.275325,8.812981l1.32881,0.953391c-0.255738,0.790983 -0.67555,1.508192 -1.219325,2.11148l-1.490036,-0.67219c-0.424093,0.373695 -0.922175,0.665397 -1.46944,0.850318l-0.162351,1.626781c-0.393388,0.083543 -0.801412,0.127497 -1.219706,0.127497c-0.418293,0 -0.826318,-0.043956 -1.219704,-0.127497l-0.162352,-1.626781c-0.547265,-0.184919 -1.045347,-0.476622 -1.46944,-0.850318l-1.490037,0.67219c-0.543774,-0.603288 -0.963588,-1.320497 -1.219326,-2.11148l1.328812,-0.953391c-0.054356,-0.273515 -0.082871,-0.556352 -0.082871,-0.845833c0,-0.289482 0.028515,-0.572318 0.082871,-0.845836l-1.328812,-0.95339c0.255739,-0.790983 0.675552,-1.508193 1.219326,-2.111481l1.490037,0.672192c0.424094,-0.373697 0.922174,-0.665399 1.46944,-0.850319l0.162352,-1.626779c0.393386,-0.083542 0.801411,-0.127497 1.219704,-0.127497c0.418294,0 0.826318,0.043955 1.219706,0.127497l0.162351,1.626779c0.547265,0.184919 1.045347,0.476621 1.46944,0.850319l1.490036,-0.672192c0.543775,0.603288 0.963587,1.320498 1.219325,2.111481l-1.32881,0.95339c0.054354,0.273518 0.082871,0.556355 0.082871,0.845836c0,0.289483 -0.028517,0.572319 -0.082871,0.845833zm-4.232048,1.222088c1.141891,0 2.067555,-0.925769 2.067555,-2.067746c0,-1.141978 -0.925666,-2.06773 -2.067555,-2.06773c-1.141891,0 -2.067554,0.925752 -2.067554,2.06773c0,1.141977 0.925664,2.067746 2.067554,2.067746z" fill="#40B6E0"/>
        </g>
    </g>

</svg>